<?xml version="1.0" encoding="UTF-8"?>
<svg xmlns="http://www.w3.org/2000/svg" width="1200" height="800" viewBox="0 0 1200 800" role="img" aria-labelledby="title desc">
  <title id="title">weier.digital logo - stacked monochrome</title>
  <desc id="desc">Minimalist weier.digital logo with double forward slash mark, horizontal parallel caps, and a small square accent.</desc>
  
  
    <g id="signet">
      <polygon points="567.660,180.800 596.700,180.800 528.060,339.200 499.020,339.200" fill="#111317"/>
      <polygon points="642.900,180.800 671.940,180.800 603.300,339.200 574.260,339.200" fill="#111317"/>
      <rect x="681.180" y="302.240" width="26.400" height="26.400" fill="#111317"/>
    </g>
  <path id="wordmark" d="M393.753,482.66 L404.633,482.66 L410.503,506.78 L416.413,482.66 L425.753,482.66 L431.633,506.53 L437.533,482.66 L448.413,482.66 L439.193,517.66 L426.973,517.66 L421.063,493.6 L415.193,517.66 L402.973,517.66 L393.753,482.66 Z M490.938,500.07 L490.938,503.25 L464.788,503.25 Q465.188,507.19 467.628,509.16 Q470.068,511.13 474.438,511.13 Q477.968,511.13 481.668,510.08 Q485.378,509.03 489.288,506.91 L489.288,515.53 Q485.318,517.03 481.348,517.8 Q477.378,518.57 473.408,518.57 Q463.908,518.57 458.638,513.74 Q453.378,508.91 453.378,500.19 Q453.378,491.63 458.548,486.73 Q463.718,481.82 472.788,481.82 Q481.038,481.82 485.988,486.79 Q490.938,491.75 490.938,500.07 Z M479.438,496.35 Q479.438,493.16 477.578,491.21 Q475.718,489.25 472.718,489.25 Q469.468,489.25 467.438,491.08 Q465.408,492.91 464.908,496.35 L479.438,496.35 Z M499.414,482.66 L510.594,482.66 L510.594,517.66 L499.414,517.66 L499.414,482.66 Z M499.414,469.03 L510.594,469.03 L510.594,478.16 L499.414,478.16 L499.414,469.03 Z M556.282,500.07 L556.282,503.25 L530.132,503.25 Q530.532,507.19 532.972,509.16 Q535.412,511.13 539.782,511.13 Q543.312,511.13 547.012,510.08 Q550.722,509.03 554.632,506.91 L554.632,515.53 Q550.662,517.03 546.692,517.8 Q542.722,518.57 538.752,518.57 Q529.252,518.57 523.982,513.74 Q518.722,508.91 518.722,500.19 Q518.722,491.63 523.892,486.73 Q529.062,481.82 538.132,481.82 Q546.382,481.82 551.332,486.79 Q556.282,491.75 556.282,500.07 Z M544.782,496.35 Q544.782,493.16 542.922,491.21 Q541.062,489.25 538.062,489.25 Q534.812,489.25 532.782,491.08 Q530.752,492.91 530.252,496.35 L544.782,496.35 Z M590.758,492.19 Q589.288,491.5 587.828,491.18 Q586.378,490.85 584.908,490.85 Q580.598,490.85 578.268,493.62 Q575.938,496.38 575.938,501.53 L575.938,517.66 L564.758,517.66 L564.758,482.66 L575.938,482.66 L575.938,488.41 Q578.098,484.97 580.888,483.4 Q583.688,481.82 587.598,481.82 Q588.158,481.82 588.808,481.87 Q589.468,481.91 590.718,482.07 L590.758,492.19 Z M599.838,509.72 L606.438,509.72 L606.438,517.66 L599.838,517.66 L599.838,509.72 Z M642.402,487.97 L642.402,469.03 L648.152,469.03 L648.152,517.66 L642.402,517.66 L642.402,512.41 Q640.592,515.53 637.822,517.05 Q635.062,518.57 631.182,518.57 Q624.842,518.57 620.852,513.51 Q616.872,508.44 616.872,500.19 Q616.872,491.94 620.852,486.88 Q624.842,481.82 631.182,481.82 Q635.062,481.82 637.822,483.34 Q640.592,484.85 642.402,487.97 Z M622.812,500.19 Q622.812,506.53 625.422,510.14 Q628.032,513.75 632.592,513.75 Q637.152,513.75 639.772,510.14 Q642.402,506.53 642.402,500.19 Q642.402,493.85 639.772,490.24 Q637.152,486.63 632.592,486.63 Q628.032,486.63 625.422,490.24 Q622.812,493.85 622.812,500.19 Z M659.997,482.66 L665.747,482.66 L665.747,517.66 L659.997,517.66 L659.997,482.66 Z M659.997,469.03 L665.747,469.03 L665.747,476.32 L659.997,476.32 L659.997,469.03 Z M700.808,499.75 Q700.808,493.5 698.228,490.07 Q695.658,486.63 690.998,486.63 Q686.378,486.63 683.798,490.07 Q681.218,493.5 681.218,499.75 Q681.218,505.97 683.798,509.41 Q686.378,512.85 690.998,512.85 Q695.658,512.85 698.228,509.41 Q700.808,505.97 700.808,499.75 Z M706.558,513.32 Q706.558,522.25 702.588,526.61 Q698.628,530.97 690.438,530.97 Q687.408,530.97 684.718,530.52 Q682.028,530.07 679.498,529.13 L679.498,523.54 Q682.028,524.91 684.498,525.56 Q686.968,526.22 689.528,526.22 Q695.188,526.22 697.998,523.27 Q700.808,520.32 700.808,514.35 L700.808,511.5 Q699.028,514.6 696.248,516.13 Q693.468,517.66 689.588,517.66 Q683.158,517.66 679.218,512.76 Q675.278,507.85 675.278,499.75 Q675.278,491.63 679.218,486.73 Q683.158,481.82 689.588,481.82 Q693.468,481.82 696.248,483.35 Q699.028,484.88 700.808,487.97 L700.808,482.66 L706.558,482.66 L706.558,513.32 Z M718.403,482.66 L724.153,482.66 L724.153,517.66 L718.403,517.66 L718.403,482.66 Z M718.403,469.03 L724.153,469.03 L724.153,476.32 L718.403,476.32 L718.403,469.03 Z M741.874,472.72 L741.874,482.66 L753.714,482.66 L753.714,487.13 L741.874,487.13 L741.874,506.13 Q741.874,510.41 743.044,511.63 Q744.214,512.85 747.814,512.85 L753.714,512.85 L753.714,517.66 L747.814,517.66 Q741.154,517.66 738.624,515.18 Q736.094,512.69 736.094,506.13 L736.094,487.13 L731.874,487.13 L731.874,482.66 L736.094,482.66 L736.094,472.72 L741.874,472.72 Z M777.188,500.07 Q770.218,500.07 767.528,501.66 Q764.838,503.25 764.838,507.1 Q764.838,510.16 766.858,511.96 Q768.878,513.75 772.338,513.75 Q777.128,513.75 780.018,510.36 Q782.908,506.97 782.908,501.35 L782.908,500.07 L777.188,500.07 Z M788.658,497.69 L788.658,517.66 L782.908,517.66 L782.908,512.35 Q780.938,515.53 777.998,517.05 Q775.058,518.57 770.808,518.57 Q765.438,518.57 762.258,515.55 Q759.088,512.53 759.088,507.47 Q759.088,501.57 763.038,498.57 Q766.998,495.57 774.838,495.57 L782.908,495.57 L782.908,495 Q782.908,491.03 780.298,488.86 Q777.688,486.69 772.968,486.69 Q769.968,486.69 767.118,487.41 Q764.278,488.13 761.658,489.57 L761.658,484.25 Q764.808,483.03 767.778,482.43 Q770.748,481.82 773.558,481.82 Q781.158,481.82 784.908,485.76 Q788.658,489.69 788.658,497.69 Z M800.497,469.03 L806.247,469.03 L806.247,517.66 L800.497,517.66 L800.497,469.03 Z" fill="#111317" fill-rule="nonzero"/>

</svg>