<?xml version="1.0" encoding="UTF-8"?>
<svg xmlns="http://www.w3.org/2000/svg" width="1800" height="1200" viewBox="0 0 1800 1200" role="img" aria-labelledby="title desc">
  <title id="title">weier.digital logo preview sheet</title>
  <desc id="desc">Minimalist weier.digital logo with double forward slash mark, horizontal parallel caps, and a small square accent.</desc>
  
  <rect x="0" y="0" width="1800" height="1200" fill="#ffffff"/>
  <text x="120" y="130" font-family="Arial, Helvetica, sans-serif" font-size="34" fill="#555">weier.digital logo package</text>
  <text x="120" y="180" font-family="Arial, Helvetica, sans-serif" font-size="18" fill="#777">Forward slashes // · parallel top/bottom caps · lowercase wordmark · transparent assets included</text>
  <g transform="translate(0,40)">
    
    <g id="signet">
      <polygon points="421.825,261.000 447.125,261.000 387.325,399.000 362.025,399.000" fill="#111317"/>
      <polygon points="487.375,261.000 512.675,261.000 452.875,399.000 427.575,399.000" fill="#111317"/>
      <rect x="520.725" y="366.800" width="23.000" height="23.000" fill="#7E45C5"/>
    </g>
    <path id="wordmark" d="M275.979,505.369 L285.159,505.369 L290.112,525.721 L295.099,505.369 L302.979,505.369 L307.94,525.51 L312.919,505.369 L322.099,505.369 L314.319,534.901 L304.009,534.901 L299.022,514.6 L294.069,534.901 L283.759,534.901 L275.979,505.369 Z M357.979,520.059 L357.979,522.742 L335.915,522.742 Q336.252,526.067 338.311,527.729 Q340.37,529.391 344.057,529.391 Q347.036,529.391 350.157,528.505 Q353.288,527.619 356.587,525.83 L356.587,533.103 Q353.237,534.369 349.887,535.019 Q346.538,535.668 343.188,535.668 Q335.172,535.668 330.726,531.593 Q326.288,527.518 326.288,520.16 Q326.288,512.938 330.65,508.803 Q335.012,504.661 342.665,504.661 Q349.626,504.661 353.802,508.854 Q357.979,513.039 357.979,520.059 Z M348.276,516.92 Q348.276,514.229 346.707,512.583 Q345.137,510.93 342.606,510.93 Q339.864,510.93 338.151,512.474 Q336.438,514.018 336.016,516.92 L348.276,516.92 Z M365.131,505.369 L374.564,505.369 L374.564,534.901 L365.131,534.901 L365.131,505.369 Z M365.131,493.869 L374.564,493.869 L374.564,501.572 L365.131,501.572 L365.131,493.869 Z M413.113,520.059 L413.113,522.742 L391.049,522.742 Q391.386,526.067 393.445,527.729 Q395.504,529.391 399.191,529.391 Q402.169,529.391 405.291,528.505 Q408.422,527.619 411.721,525.83 L411.721,533.103 Q408.371,534.369 405.021,535.019 Q401.672,535.668 398.322,535.668 Q390.306,535.668 385.86,531.593 Q381.422,527.518 381.422,520.16 Q381.422,512.938 385.784,508.803 Q390.146,504.661 397.799,504.661 Q404.76,504.661 408.936,508.854 Q413.113,513.039 413.113,520.059 Z M403.41,516.92 Q403.41,514.229 401.84,512.583 Q400.271,510.93 397.74,510.93 Q394.998,510.93 393.285,512.474 Q391.572,514.018 391.15,516.92 L403.41,516.92 Z M442.202,513.41 Q440.962,512.828 439.73,512.558 Q438.507,512.28 437.266,512.28 Q433.63,512.28 431.664,514.617 Q429.698,516.946 429.698,521.291 L429.698,534.901 L420.265,534.901 L420.265,505.369 L429.698,505.369 L429.698,510.221 Q431.52,507.318 433.874,505.994 Q436.237,504.661 439.536,504.661 Q440.008,504.661 440.557,504.703 Q441.114,504.737 442.168,504.872 L442.202,513.41 Z M449.863,528.201 L455.432,528.201 L455.432,534.901 L449.863,534.901 L449.863,528.201 Z M485.777,509.85 L485.777,493.869 L490.628,493.869 L490.628,534.901 L485.777,534.901 L485.777,530.471 Q484.249,533.103 481.912,534.386 Q479.583,535.668 476.31,535.668 Q470.96,535.668 467.594,531.399 Q464.236,527.121 464.236,520.16 Q464.236,513.199 467.594,508.93 Q470.96,504.661 476.31,504.661 Q479.583,504.661 481.912,505.943 Q484.249,507.217 485.777,509.85 Z M469.248,520.16 Q469.248,525.51 471.45,528.556 Q473.652,531.602 477.499,531.602 Q481.347,531.602 483.558,528.556 Q485.777,525.51 485.777,520.16 Q485.777,514.811 483.558,511.765 Q481.347,508.719 477.499,508.719 Q473.652,508.719 471.45,511.765 Q469.248,514.811 469.248,520.16 Z M500.622,505.369 L505.474,505.369 L505.474,534.901 L500.622,534.901 L500.622,505.369 Z M500.622,493.869 L505.474,493.869 L505.474,500.02 L500.622,500.02 L500.622,493.869 Z M535.057,519.789 Q535.057,514.516 532.88,511.622 Q530.712,508.719 526.78,508.719 Q522.882,508.719 520.705,511.622 Q518.528,514.516 518.528,519.789 Q518.528,525.037 520.705,527.94 Q522.882,530.842 526.78,530.842 Q530.712,530.842 532.88,527.94 Q535.057,525.037 535.057,519.789 Z M539.908,531.239 Q539.908,538.773 536.559,542.452 Q533.217,546.131 526.307,546.131 Q523.751,546.131 521.481,545.751 Q519.211,545.372 517.077,544.578 L517.077,539.862 Q519.211,541.018 521.295,541.566 Q523.379,542.123 525.539,542.123 Q530.315,542.123 532.686,539.634 Q535.057,537.145 535.057,532.108 L535.057,529.703 Q533.555,532.319 531.209,533.61 Q528.864,534.901 525.59,534.901 Q520.165,534.901 516.84,530.766 Q513.516,526.623 513.516,519.789 Q513.516,512.938 516.84,508.803 Q520.165,504.661 525.59,504.661 Q528.864,504.661 531.209,505.952 Q533.555,507.243 535.057,509.85 L535.057,505.369 L539.908,505.369 L539.908,531.239 Z M549.903,505.369 L554.754,505.369 L554.754,534.901 L549.903,534.901 L549.903,505.369 Z M549.903,493.869 L554.754,493.869 L554.754,500.02 L549.903,500.02 L549.903,493.869 Z M569.707,496.983 L569.707,505.369 L579.697,505.369 L579.697,509.141 L569.707,509.141 L569.707,525.172 Q569.707,528.783 570.694,529.813 Q571.681,530.842 574.718,530.842 L579.697,530.842 L579.697,534.901 L574.718,534.901 Q569.099,534.901 566.964,532.808 Q564.83,530.707 564.83,525.172 L564.83,509.141 L561.269,509.141 L561.269,505.369 L564.83,505.369 L564.83,496.983 L569.707,496.983 Z M599.502,520.059 Q593.622,520.059 591.352,521.401 Q589.082,522.742 589.082,525.991 Q589.082,528.572 590.787,530.091 Q592.491,531.602 595.41,531.602 Q599.452,531.602 601.89,528.741 Q604.329,525.881 604.329,521.139 L604.329,520.059 L599.502,520.059 Z M609.18,518.051 L609.18,534.901 L604.329,534.901 L604.329,530.42 Q602.667,533.103 600.186,534.386 Q597.705,535.668 594.119,535.668 Q589.588,535.668 586.905,533.12 Q584.231,530.572 584.231,526.303 Q584.231,521.325 587.563,518.793 Q590.905,516.262 597.52,516.262 L604.329,516.262 L604.329,515.781 Q604.329,512.432 602.127,510.601 Q599.924,508.77 595.942,508.77 Q593.411,508.77 591.006,509.377 Q588.61,509.985 586.399,511.2 L586.399,506.711 Q589.057,505.682 591.563,505.175 Q594.069,504.661 596.44,504.661 Q602.852,504.661 606.016,507.985 Q609.18,511.301 609.18,518.051 Z M619.169,493.869 L624.021,493.869 L624.021,534.901 L619.169,534.901 L619.169,493.869 Z" fill="#111317" fill-rule="nonzero"/>
    <text x="330" y="630" font-family="Arial, Helvetica, sans-serif" font-size="16" fill="#777">Stacked</text>
  </g>
  <g transform="translate(780,40)">
    
    <g id="signet">
      <polygon points="191.135,283.800 208.075,283.800 168.035,376.200 151.095,376.200" fill="#111317"/>
      <polygon points="235.025,283.800 251.965,283.800 211.925,376.200 194.985,376.200" fill="#111317"/>
      <rect x="257.355" y="354.640" width="15.400" height="15.400" fill="#7E45C5"/>
    </g>
    <path id="wordmark" d="M377.308,312.118 L388.528,312.118 L394.581,336.992 L400.676,312.118 L410.308,312.118 L416.372,336.734 L422.456,312.118 L433.676,312.118 L424.168,348.212 L411.566,348.212 L405.471,323.4 L399.418,348.212 L386.816,348.212 L377.308,312.118 Z M477.53,330.072 L477.53,333.352 L450.563,333.352 Q450.975,337.415 453.492,339.446 Q456.008,341.478 460.514,341.478 Q464.155,341.478 467.97,340.395 Q471.796,339.312 475.828,337.126 L475.828,346.015 Q471.734,347.562 467.64,348.356 Q463.546,349.15 459.452,349.15 Q449.655,349.15 444.221,344.169 Q438.796,339.188 438.796,330.196 Q438.796,321.368 444.128,316.315 Q449.459,311.252 458.813,311.252 Q467.321,311.252 472.425,316.377 Q477.53,321.492 477.53,330.072 Z M465.671,326.236 Q465.671,322.946 463.752,320.935 Q461.834,318.914 458.741,318.914 Q455.389,318.914 453.296,320.801 Q451.202,322.688 450.687,326.236 L465.671,326.236 Z M486.271,312.118 L497.8,312.118 L497.8,348.212 L486.271,348.212 L486.271,312.118 Z M486.271,298.062 L497.8,298.062 L497.8,307.478 L486.271,307.478 L486.271,298.062 Z M544.916,330.072 L544.916,333.352 L517.948,333.352 Q518.361,337.415 520.877,339.446 Q523.393,341.478 527.9,341.478 Q531.54,341.478 535.356,340.395 Q539.182,339.312 543.214,337.126 L543.214,346.015 Q539.12,347.562 535.026,348.356 Q530.932,349.15 526.838,349.15 Q517.041,349.15 511.606,344.169 Q506.182,339.188 506.182,330.196 Q506.182,321.368 511.513,316.315 Q516.845,311.252 526.198,311.252 Q534.706,311.252 539.811,316.377 Q544.916,321.492 544.916,330.072 Z M533.056,326.236 Q533.056,322.946 531.138,320.935 Q529.22,318.914 526.126,318.914 Q522.775,318.914 520.681,320.801 Q518.588,322.688 518.072,326.236 L533.056,326.236 Z M580.469,321.946 Q578.953,321.234 577.448,320.904 Q575.952,320.564 574.437,320.564 Q569.992,320.564 567.589,323.421 Q565.186,326.267 565.186,331.578 L565.186,348.212 L553.657,348.212 L553.657,312.118 L565.186,312.118 L565.186,318.048 Q567.414,314.5 570.291,312.881 Q573.178,311.252 577.211,311.252 Q577.788,311.252 578.458,311.303 Q579.139,311.345 580.428,311.51 L580.469,321.946 Z M589.833,340.024 L596.639,340.024 L596.639,348.212 L589.833,348.212 L589.833,340.024 Z M633.727,317.594 L633.727,298.062 L639.657,298.062 L639.657,348.212 L633.727,348.212 L633.727,342.798 Q631.86,346.015 629.004,347.583 Q626.158,349.15 622.156,349.15 Q615.618,349.15 611.503,343.932 Q607.399,338.704 607.399,330.196 Q607.399,321.688 611.503,316.47 Q615.618,311.252 622.156,311.252 Q626.158,311.252 629.004,312.819 Q631.86,314.377 633.727,317.594 Z M613.525,330.196 Q613.525,336.734 616.216,340.457 Q618.908,344.18 623.61,344.18 Q628.313,344.18 631.015,340.457 Q633.727,336.734 633.727,330.196 Q633.727,323.658 631.015,319.935 Q628.313,316.212 623.61,316.212 Q618.908,316.212 616.216,319.935 Q613.525,323.658 613.525,330.196 Z M651.872,312.118 L657.801,312.118 L657.801,348.212 L651.872,348.212 L651.872,312.118 Z M651.872,298.062 L657.801,298.062 L657.801,305.58 L651.872,305.58 L651.872,298.062 Z M693.958,329.742 Q693.958,323.297 691.298,319.76 Q688.647,316.212 683.842,316.212 Q679.077,316.212 676.417,319.76 Q673.756,323.297 673.756,329.742 Q673.756,336.157 676.417,339.704 Q679.077,343.252 683.842,343.252 Q688.647,343.252 691.298,339.704 Q693.958,336.157 693.958,329.742 Z M699.888,343.736 Q699.888,352.945 695.794,357.442 Q691.71,361.938 683.264,361.938 Q680.14,361.938 677.366,361.474 Q674.592,361.01 671.982,360.04 L671.982,354.276 Q674.592,355.688 677.139,356.359 Q679.686,357.039 682.326,357.039 Q688.163,357.039 691.061,353.997 Q693.958,350.955 693.958,344.798 L693.958,341.859 Q692.123,345.056 689.256,346.634 Q686.389,348.212 682.388,348.212 Q675.757,348.212 671.694,343.159 Q667.631,338.095 667.631,329.742 Q667.631,321.368 671.694,316.315 Q675.757,311.252 682.388,311.252 Q686.389,311.252 689.256,312.83 Q692.123,314.408 693.958,317.594 L693.958,312.118 L699.888,312.118 L699.888,343.736 Z M712.103,312.118 L718.033,312.118 L718.033,348.212 L712.103,348.212 L712.103,312.118 Z M712.103,298.062 L718.033,298.062 L718.033,305.58 L712.103,305.58 L712.103,298.062 Z M736.308,301.868 L736.308,312.118 L748.518,312.118 L748.518,316.728 L736.308,316.728 L736.308,336.322 Q736.308,340.735 737.515,341.993 Q738.721,343.252 742.434,343.252 L748.518,343.252 L748.518,348.212 L742.434,348.212 Q735.565,348.212 732.956,345.654 Q730.347,343.087 730.347,336.322 L730.347,316.728 L725.995,316.728 L725.995,312.118 L730.347,312.118 L730.347,301.868 L736.308,301.868 Z M772.725,330.072 Q765.537,330.072 762.763,331.712 Q759.989,333.352 759.989,337.322 Q759.989,340.478 762.072,342.334 Q764.156,344.18 767.724,344.18 Q772.663,344.18 775.644,340.684 Q778.624,337.188 778.624,331.392 L778.624,330.072 L772.725,330.072 Z M784.554,327.618 L784.554,348.212 L778.624,348.212 L778.624,342.736 Q776.592,346.015 773.561,347.583 Q770.529,349.15 766.146,349.15 Q760.608,349.15 757.329,346.036 Q754.06,342.922 754.06,337.703 Q754.06,331.619 758.133,328.525 Q762.217,325.432 770.302,325.432 L778.624,325.432 L778.624,324.844 Q778.624,320.75 775.932,318.512 Q773.241,316.274 768.373,316.274 Q765.28,316.274 762.341,317.017 Q759.412,317.759 756.71,319.244 L756.71,313.758 Q759.958,312.5 763.021,311.881 Q766.084,311.252 768.982,311.252 Q776.819,311.252 780.687,315.315 Q784.554,319.368 784.554,327.618 Z M796.762,298.062 L802.692,298.062 L802.692,348.212 L796.762,348.212 L796.762,298.062 Z" fill="#111317" fill-rule="nonzero"/>
    <text x="160" y="630" font-family="Arial, Helvetica, sans-serif" font-size="16" fill="#777">Horizontal</text>
  </g>
  <g transform="translate(100,710)">
    
    <g id="signet">
      <polygon points="218.640,108.200 246.800,108.200 180.240,261.800 152.080,261.800" fill="#111317"/>
      <polygon points="291.600,108.200 319.760,108.200 253.200,261.800 225.040,261.800" fill="#111317"/>
      <rect x="328.720" y="225.960" width="25.600" height="25.600" fill="#7E45C5"/>
    </g>
    <text x="160" y="380" font-family="Arial, Helvetica, sans-serif" font-size="16" fill="#777">Icon</text>
  </g>
  <g transform="translate(560,710)">
    
    <g id="signet">
      <polygon points="242.070,116.600 267.150,116.600 207.870,253.400 182.790,253.400" fill="#111317"/>
      <polygon points="307.050,116.600 332.130,116.600 272.850,253.400 247.770,253.400" fill="#111317"/>
      <rect x="340.110" y="221.480" width="22.800" height="22.800" fill="#111317"/>
    </g>
    <path id="wordmark" d="M115.315,376.995 L123.475,376.995 L127.877,395.085 L132.31,376.995 L139.315,376.995 L143.725,394.897 L148.15,376.995 L156.31,376.995 L149.395,403.245 L140.23,403.245 L135.797,385.2 L131.395,403.245 L122.23,403.245 L115.315,376.995 Z M188.204,390.053 L188.204,392.438 L168.591,392.438 Q168.891,395.392 170.721,396.87 Q172.551,398.347 175.829,398.347 Q178.476,398.347 181.251,397.56 Q184.034,396.772 186.966,395.183 L186.966,401.647 Q183.989,402.772 181.011,403.35 Q178.034,403.928 175.056,403.928 Q167.931,403.928 163.979,400.305 Q160.034,396.683 160.034,390.142 Q160.034,383.722 163.911,380.048 Q167.789,376.365 174.591,376.365 Q180.779,376.365 184.491,380.092 Q188.204,383.812 188.204,390.053 Z M179.579,387.262 Q179.579,384.87 178.184,383.408 Q176.789,381.938 174.539,381.938 Q172.101,381.938 170.579,383.31 Q169.056,384.683 168.681,387.262 L179.579,387.262 Z M194.561,376.995 L202.946,376.995 L202.946,403.245 L194.561,403.245 L194.561,376.995 Z M194.561,366.772 L202.946,366.772 L202.946,373.62 L194.561,373.62 L194.561,366.772 Z M237.211,390.053 L237.211,392.438 L217.599,392.438 Q217.899,395.392 219.729,396.87 Q221.559,398.347 224.836,398.347 Q227.484,398.347 230.259,397.56 Q233.041,396.772 235.974,395.183 L235.974,401.647 Q232.996,402.772 230.019,403.35 Q227.041,403.928 224.064,403.928 Q216.939,403.928 212.986,400.305 Q209.041,396.683 209.041,390.142 Q209.041,383.722 212.919,380.048 Q216.796,376.365 223.599,376.365 Q229.786,376.365 233.499,380.092 Q237.211,383.812 237.211,390.053 Z M228.586,387.262 Q228.586,384.87 227.191,383.408 Q225.796,381.938 223.546,381.938 Q221.109,381.938 219.586,383.31 Q218.064,384.683 217.689,387.262 L228.586,387.262 Z M263.069,384.142 Q261.966,383.625 260.871,383.385 Q259.784,383.137 258.681,383.137 Q255.449,383.137 253.701,385.215 Q251.954,387.285 251.954,391.147 L251.954,403.245 L243.569,403.245 L243.569,376.995 L251.954,376.995 L251.954,381.308 Q253.574,378.728 255.666,377.55 Q257.766,376.365 260.699,376.365 Q261.119,376.365 261.606,376.402 Q262.101,376.433 263.039,376.553 L263.069,384.142 Z M269.879,397.29 L274.829,397.29 L274.829,403.245 L269.879,403.245 L269.879,397.29 Z M301.801,380.978 L301.801,366.772 L306.114,366.772 L306.114,403.245 L301.801,403.245 L301.801,399.308 Q300.444,401.647 298.366,402.788 Q296.296,403.928 293.386,403.928 Q288.631,403.928 285.639,400.132 Q282.654,396.33 282.654,390.142 Q282.654,383.955 285.639,380.16 Q288.631,376.365 293.386,376.365 Q296.296,376.365 298.366,377.505 Q300.444,378.637 301.801,380.978 Z M287.109,390.142 Q287.109,394.897 289.066,397.605 Q291.024,400.312 294.444,400.312 Q297.864,400.312 299.829,397.605 Q301.801,394.897 301.801,390.142 Q301.801,385.387 299.829,382.68 Q297.864,379.972 294.444,379.972 Q291.024,379.972 289.066,382.68 Q287.109,385.387 287.109,390.142 Z M314.998,376.995 L319.31,376.995 L319.31,403.245 L314.998,403.245 L314.998,376.995 Z M314.998,366.772 L319.31,366.772 L319.31,372.24 L314.998,372.24 L314.998,366.772 Z M345.606,389.812 Q345.606,385.125 343.671,382.553 Q341.744,379.972 338.249,379.972 Q334.784,379.972 332.849,382.553 Q330.914,385.125 330.914,389.812 Q330.914,394.478 332.849,397.058 Q334.784,399.637 338.249,399.637 Q341.744,399.637 343.671,397.058 Q345.606,394.478 345.606,389.812 Z M349.919,399.99 Q349.919,406.688 346.941,409.957 Q343.971,413.228 337.829,413.228 Q335.556,413.228 333.539,412.89 Q331.521,412.553 329.624,411.847 L329.624,407.655 Q331.521,408.683 333.374,409.17 Q335.226,409.665 337.146,409.665 Q341.391,409.665 343.499,407.452 Q345.606,405.24 345.606,400.762 L345.606,398.625 Q344.271,400.95 342.186,402.097 Q340.101,403.245 337.191,403.245 Q332.369,403.245 329.414,399.57 Q326.459,395.887 326.459,389.812 Q326.459,383.722 329.414,380.048 Q332.369,376.365 337.191,376.365 Q340.101,376.365 342.186,377.512 Q344.271,378.66 345.606,380.978 L345.606,376.995 L349.919,376.995 L349.919,399.99 Z M358.802,376.995 L363.115,376.995 L363.115,403.245 L358.802,403.245 L358.802,376.995 Z M358.802,366.772 L363.115,366.772 L363.115,372.24 L358.802,372.24 L358.802,366.772 Z M376.406,369.54 L376.406,376.995 L385.286,376.995 L385.286,380.347 L376.406,380.347 L376.406,394.598 Q376.406,397.808 377.283,398.722 Q378.161,399.637 380.861,399.637 L385.286,399.637 L385.286,403.245 L380.861,403.245 Q375.866,403.245 373.968,401.385 Q372.071,399.517 372.071,394.598 L372.071,380.347 L368.906,380.347 L368.906,376.995 L372.071,376.995 L372.071,369.54 L376.406,369.54 Z M402.891,390.053 Q397.664,390.053 395.646,391.245 Q393.629,392.438 393.629,395.325 Q393.629,397.62 395.144,398.97 Q396.659,400.312 399.254,400.312 Q402.846,400.312 405.014,397.77 Q407.181,395.228 407.181,391.012 L407.181,390.053 L402.891,390.053 Z M411.494,388.267 L411.494,403.245 L407.181,403.245 L407.181,399.262 Q405.704,401.647 403.499,402.788 Q401.294,403.928 398.106,403.928 Q394.079,403.928 391.694,401.663 Q389.316,399.397 389.316,395.603 Q389.316,391.178 392.279,388.928 Q395.249,386.678 401.129,386.678 L407.181,386.678 L407.181,386.25 Q407.181,383.272 405.224,381.645 Q403.266,380.017 399.726,380.017 Q397.476,380.017 395.339,380.558 Q393.209,381.097 391.244,382.178 L391.244,378.188 Q393.606,377.272 395.834,376.822 Q398.061,376.365 400.169,376.365 Q405.869,376.365 408.681,379.32 Q411.494,382.267 411.494,388.267 Z M420.373,366.772 L424.685,366.772 L424.685,403.245 L420.373,403.245 L420.373,366.772 Z" fill="#111317" fill-rule="nonzero"/>
    <text x="180" y="480" font-family="Arial, Helvetica, sans-serif" font-size="16" fill="#777">Monochrome</text>
  </g>
  <g transform="translate(1080,720)">
    <rect x="0" y="0" width="500" height="300" rx="30" fill="#111317"/>
    <g transform="translate(0,0)">
      
    <g id="signet">
      <polygon points="228.930,68.400 247.850,68.400 203.130,171.600 184.210,171.600" fill="#ffffff"/>
      <polygon points="277.950,68.400 296.870,68.400 252.150,171.600 233.230,171.600" fill="#ffffff"/>
      <rect x="302.890" y="147.520" width="17.200" height="17.200" fill="#7E45C5"/>
    </g>
      <path id="wordmark" d="M108.205,223.079 L115.685,223.079 L119.721,239.661 L123.784,223.079 L130.205,223.079 L134.248,239.489 L138.304,223.079 L145.784,223.079 L139.445,247.141 L131.044,247.141 L126.981,230.6 L122.945,247.141 L114.544,247.141 L108.205,223.079 Z M175.02,235.048 L175.02,237.234 L157.042,237.234 Q157.317,239.943 158.994,241.298 Q160.672,242.652 163.676,242.652 Q166.103,242.652 168.647,241.93 Q171.197,241.208 173.886,239.751 L173.886,245.677 Q171.156,246.708 168.427,247.238 Q165.697,247.767 162.968,247.767 Q156.437,247.767 152.814,244.446 Q149.197,241.126 149.197,235.131 Q149.197,229.246 152.752,225.877 Q156.306,222.501 162.542,222.501 Q168.214,222.501 171.617,225.918 Q175.02,229.328 175.02,235.048 Z M167.114,232.491 Q167.114,230.298 165.835,228.957 Q164.556,227.609 162.494,227.609 Q160.259,227.609 158.864,228.868 Q157.468,230.126 157.124,232.491 L167.114,232.491 Z M180.847,223.079 L188.534,223.079 L188.534,247.141 L180.847,247.141 L180.847,223.079 Z M180.847,213.708 L188.534,213.708 L188.534,219.985 L180.847,219.985 L180.847,213.708 Z M219.944,235.048 L219.944,237.234 L201.966,237.234 Q202.241,239.943 203.918,241.298 Q205.596,242.652 208.6,242.652 Q211.027,242.652 213.571,241.93 Q216.121,241.208 218.809,239.751 L218.809,245.677 Q216.08,246.708 213.351,247.238 Q210.621,247.767 207.892,247.767 Q201.361,247.767 197.738,244.446 Q194.121,241.126 194.121,235.131 Q194.121,229.246 197.676,225.877 Q201.23,222.501 207.466,222.501 Q213.138,222.501 216.541,225.918 Q219.944,229.328 219.944,235.048 Z M212.038,232.491 Q212.038,230.298 210.759,228.957 Q209.48,227.609 207.418,227.609 Q205.183,227.609 203.788,228.868 Q202.392,230.126 202.048,232.491 L212.038,232.491 Z M243.646,229.631 Q242.636,229.156 241.632,228.936 Q240.635,228.709 239.624,228.709 Q236.661,228.709 235.059,230.614 Q233.457,232.511 233.457,236.052 L233.457,247.141 L225.771,247.141 L225.771,223.079 L233.457,223.079 L233.457,227.032 Q234.942,224.667 236.861,223.588 Q238.786,222.501 241.474,222.501 Q241.859,222.501 242.306,222.536 Q242.759,222.563 243.619,222.673 L243.646,229.631 Z M249.889,241.683 L254.426,241.683 L254.426,247.141 L249.889,247.141 L249.889,241.683 Z M279.151,226.729 L279.151,213.708 L283.104,213.708 L283.104,247.141 L279.151,247.141 L279.151,243.532 Q277.907,245.677 276.003,246.722 Q274.105,247.767 271.438,247.767 Q267.079,247.767 264.336,244.288 Q261.599,240.803 261.599,235.131 Q261.599,229.459 264.336,225.98 Q267.079,222.501 271.438,222.501 Q274.105,222.501 276.003,223.546 Q277.907,224.584 279.151,226.729 Z M265.683,235.131 Q265.683,239.489 267.478,241.971 Q269.272,244.453 272.407,244.453 Q275.542,244.453 277.343,241.971 Q279.151,239.489 279.151,235.131 Q279.151,230.772 277.343,228.29 Q275.542,225.808 272.407,225.808 Q269.272,225.808 267.478,228.29 Q265.683,230.772 265.683,235.131 Z M291.248,223.079 L295.201,223.079 L295.201,247.141 L291.248,247.141 L291.248,223.079 Z M291.248,213.708 L295.201,213.708 L295.201,218.72 L291.248,218.72 L291.248,213.708 Z M319.306,234.828 Q319.306,230.531 317.532,228.173 Q315.765,225.808 312.561,225.808 Q309.385,225.808 307.611,228.173 Q305.837,230.531 305.837,234.828 Q305.837,239.104 307.611,241.469 Q309.385,243.834 312.561,243.834 Q315.765,243.834 317.532,241.469 Q319.306,239.104 319.306,234.828 Z M323.259,244.157 Q323.259,250.297 320.529,253.294 Q317.807,256.292 312.176,256.292 Q310.093,256.292 308.244,255.983 Q306.394,255.673 304.655,255.027 L304.655,251.184 Q306.394,252.126 308.092,252.572 Q309.791,253.026 311.551,253.026 Q315.442,253.026 317.374,250.998 Q319.306,248.97 319.306,244.866 L319.306,242.906 Q318.082,245.037 316.171,246.089 Q314.259,247.141 311.592,247.141 Q307.171,247.141 304.462,243.773 Q301.754,240.397 301.754,234.828 Q301.754,229.246 304.462,225.877 Q307.171,222.501 311.592,222.501 Q314.259,222.501 316.171,223.553 Q318.082,224.605 319.306,226.729 L319.306,223.079 L323.259,223.079 L323.259,244.157 Z M331.402,223.079 L335.355,223.079 L335.355,247.141 L331.402,247.141 L331.402,223.079 Z M331.402,213.708 L335.355,213.708 L335.355,218.72 L331.402,218.72 L331.402,213.708 Z M347.539,216.245 L347.539,223.079 L355.679,223.079 L355.679,226.152 L347.539,226.152 L347.539,239.214 Q347.539,242.157 348.343,242.996 Q349.147,243.834 351.622,243.834 L355.679,243.834 L355.679,247.141 L351.622,247.141 Q347.044,247.141 345.304,245.436 Q343.565,243.724 343.565,239.214 L343.565,226.152 L340.664,226.152 L340.664,223.079 L343.565,223.079 L343.565,216.245 L347.539,216.245 Z M371.817,235.048 Q367.025,235.048 365.176,236.141 Q363.326,237.234 363.326,239.881 Q363.326,241.985 364.715,243.222 Q366.104,244.453 368.482,244.453 Q371.776,244.453 373.762,242.123 Q375.749,239.792 375.749,235.928 L375.749,235.048 L371.817,235.048 Z M379.702,233.412 L379.702,247.141 L375.749,247.141 L375.749,243.491 Q374.395,245.677 372.374,246.722 Q370.352,247.767 367.431,247.767 Q363.739,247.767 361.552,245.691 Q359.373,243.614 359.373,240.136 Q359.373,236.079 362.089,234.017 Q364.811,231.954 370.201,231.954 L375.749,231.954 L375.749,231.562 Q375.749,228.833 373.955,227.341 Q372.161,225.849 368.916,225.849 Q366.853,225.849 364.894,226.344 Q362.941,226.839 361.14,227.829 L361.14,224.172 Q363.306,223.333 365.347,222.921 Q367.389,222.501 369.321,222.501 Q374.546,222.501 377.124,225.21 Q379.702,227.912 379.702,233.412 Z M387.842,213.708 L391.795,213.708 L391.795,247.141 L387.842,247.141 L387.842,213.708 Z" fill="#ffffff" fill-rule="nonzero"/>
    </g>
    <text x="170" y="360" font-family="Arial, Helvetica, sans-serif" font-size="16" fill="#777">Dark use</text>
  </g>

</svg>