<?xml version="1.0" encoding="UTF-8"?>
<svg xmlns="http://www.w3.org/2000/svg" width="1400" height="400" viewBox="0 0 1400 400" role="img" aria-labelledby="title desc">
  <title id="title">weier.digital logo - horizontal</title>
  <desc id="desc">Minimalist weier.digital logo with double forward slash mark, horizontal parallel caps, and a small square accent.</desc>
  
  
    <g id="signet">
      <polygon points="242.950,146.000 262.750,146.000 215.950,254.000 196.150,254.000" fill="#111317"/>
      <polygon points="294.250,146.000 314.050,146.000 267.250,254.000 247.450,254.000" fill="#111317"/>
      <rect x="320.350" y="228.800" width="18.000" height="18.000" fill="#7E45C5"/>
    </g>
  <path id="wordmark" d="M495.746,177.783 L509.686,177.783 L517.207,208.687 L524.779,177.783 L536.746,177.783 L544.28,208.367 L551.839,177.783 L565.779,177.783 L553.966,222.627 L538.309,222.627 L530.737,191.8 L523.216,222.627 L507.559,222.627 L495.746,177.783 Z M620.264,200.09 L620.264,204.164 L586.76,204.164 Q587.272,209.212 590.399,211.736 Q593.525,214.26 599.124,214.26 Q603.647,214.26 608.387,212.915 Q613.141,211.57 618.15,208.853 L618.15,219.898 Q613.064,221.82 607.977,222.806 Q602.891,223.793 597.804,223.793 Q585.632,223.793 578.88,217.604 Q572.141,211.416 572.141,200.243 Q572.141,189.276 578.765,182.998 Q585.389,176.707 597.01,176.707 Q607.58,176.707 613.922,183.075 Q620.264,189.43 620.264,200.09 Z M605.53,195.323 Q605.53,191.236 603.147,188.738 Q600.764,186.227 596.92,186.227 Q592.756,186.227 590.155,188.571 Q587.554,190.916 586.914,195.323 L605.53,195.323 Z M631.125,177.783 L645.449,177.783 L645.449,222.627 L631.125,222.627 L631.125,177.783 Z M631.125,160.32 L645.449,160.32 L645.449,172.017 L631.125,172.017 L631.125,160.32 Z M703.986,200.09 L703.986,204.164 L670.481,204.164 Q670.994,209.212 674.12,211.736 Q677.246,214.26 682.846,214.26 Q687.368,214.26 692.109,212.915 Q696.862,211.57 701.872,208.853 L701.872,219.898 Q696.786,221.82 691.699,222.806 Q686.612,223.793 681.526,223.793 Q669.354,223.793 662.602,217.604 Q655.862,211.416 655.862,200.243 Q655.862,189.276 662.486,182.998 Q669.111,176.707 680.731,176.707 Q691.302,176.707 697.644,183.075 Q703.986,189.43 703.986,200.09 Z M689.252,195.323 Q689.252,191.236 686.869,188.738 Q684.486,186.227 680.642,186.227 Q676.478,186.227 673.877,188.571 Q671.276,190.916 670.635,195.323 L689.252,195.323 Z M748.159,189.993 Q746.275,189.109 744.405,188.699 Q742.547,188.277 740.664,188.277 Q735.141,188.277 732.156,191.826 Q729.171,195.362 729.171,201.96 L729.171,222.627 L714.846,222.627 L714.846,177.783 L729.171,177.783 L729.171,185.15 Q731.938,180.743 735.513,178.731 Q739.1,176.707 744.11,176.707 Q744.828,176.707 745.66,176.771 Q746.506,176.822 748.108,177.027 L748.159,189.993 Z M759.793,212.454 L768.249,212.454 L768.249,222.627 L759.793,222.627 L759.793,212.454 Z M814.327,184.587 L814.327,160.32 L821.695,160.32 L821.695,222.627 L814.327,222.627 L814.327,215.9 Q812.008,219.898 808.459,221.845 Q804.923,223.793 799.952,223.793 Q791.829,223.793 786.716,217.31 Q781.617,210.814 781.617,200.243 Q781.617,189.673 786.716,183.19 Q791.829,176.707 799.952,176.707 Q804.923,176.707 808.459,178.654 Q812.008,180.589 814.327,184.587 Z M789.228,200.243 Q789.228,208.367 792.572,212.992 Q795.916,217.617 801.758,217.617 Q807.601,217.617 810.958,212.992 Q814.327,208.367 814.327,200.243 Q814.327,192.12 810.958,187.495 Q807.601,182.87 801.758,182.87 Q795.916,182.87 792.572,187.495 Q789.228,192.12 789.228,200.243 Z M836.871,177.783 L844.238,177.783 L844.238,222.627 L836.871,222.627 L836.871,177.783 Z M836.871,160.32 L844.238,160.32 L844.238,169.66 L836.871,169.66 L836.871,160.32 Z M889.16,199.68 Q889.16,191.672 885.855,187.277 Q882.562,182.87 876.591,182.87 Q870.672,182.87 867.366,187.277 Q864.061,191.672 864.061,199.68 Q864.061,207.649 867.366,212.057 Q870.672,216.464 876.591,216.464 Q882.562,216.464 885.855,212.057 Q889.16,207.649 889.16,199.68 Z M896.528,217.066 Q896.528,228.508 891.441,234.094 Q886.367,239.68 875.874,239.68 Q871.992,239.68 868.545,239.104 Q865.099,238.527 861.857,237.323 L861.857,230.161 Q865.099,231.916 868.263,232.749 Q871.428,233.594 874.708,233.594 Q881.96,233.594 885.56,229.815 Q889.16,226.035 889.16,218.386 L889.16,214.734 Q886.88,218.706 883.318,220.667 Q879.756,222.627 874.785,222.627 Q866.546,222.627 861.498,216.349 Q856.45,210.058 856.45,199.68 Q856.45,189.276 861.498,182.998 Q866.546,176.707 874.785,176.707 Q879.756,176.707 883.318,178.667 Q886.88,180.627 889.16,184.587 L889.16,177.783 L896.528,177.783 L896.528,217.066 Z M911.704,177.783 L919.071,177.783 L919.071,222.627 L911.704,222.627 L911.704,177.783 Z M911.704,160.32 L919.071,160.32 L919.071,169.66 L911.704,169.66 L911.704,160.32 Z M941.777,165.048 L941.777,177.783 L956.947,177.783 L956.947,183.51 L941.777,183.51 L941.777,207.854 Q941.777,213.338 943.276,214.901 Q944.775,216.464 949.387,216.464 L956.947,216.464 L956.947,222.627 L949.387,222.627 Q940.854,222.627 937.612,219.449 Q934.371,216.259 934.371,207.854 L934.371,183.51 L928.964,183.51 L928.964,177.783 L934.371,177.783 L934.371,165.048 L941.777,165.048 Z M987.022,200.09 Q978.092,200.09 974.645,202.127 Q971.199,204.164 971.199,209.097 Q971.199,213.017 973.787,215.324 Q976.375,217.617 980.808,217.617 Q986.945,217.617 990.648,213.274 Q994.351,208.93 994.351,201.73 L994.351,200.09 L987.022,200.09 Z M1001.72,197.04 L1001.72,222.627 L994.351,222.627 L994.351,215.823 Q991.827,219.898 988.06,221.845 Q984.293,223.793 978.848,223.793 Q971.968,223.793 967.893,219.923 Q963.832,216.054 963.832,209.571 Q963.832,202.012 968.893,198.168 Q973.966,194.324 984.011,194.324 L994.351,194.324 L994.351,193.594 Q994.351,188.507 991.007,185.727 Q987.663,182.947 981.615,182.947 Q977.772,182.947 974.12,183.869 Q970.481,184.792 967.124,186.637 L967.124,179.82 Q971.16,178.257 974.966,177.488 Q978.771,176.707 982.371,176.707 Q992.109,176.707 996.914,181.755 Q1001.72,186.79 1001.72,197.04 Z M1016.89,160.32 L1024.25,160.32 L1024.25,222.627 L1016.89,222.627 L1016.89,160.32 Z" fill="#111317" fill-rule="nonzero"/>

</svg>